<svg width="512" height="512" viewBox="0 0 512 512" fill="none" xmlns="http://www.w3.org/2000/svg">
<path d="M200.574 219.526C200.574 213.42 205.529 208.44 211.603 208.44C217.677 208.44 222.632 213.42 222.632 219.526C222.632 225.632 217.677 230.612 211.603 230.612C205.529 230.612 200.574 225.632 200.574 219.526ZM300.828 232.781C301.788 237.442 305.303 240.494 309.939 240.494C315.215 240.494 319.368 236.476 319.368 229.891V181.86C319.368 175.272 315.212 171.257 309.939 171.257C304.663 171.257 300.507 175.275 300.507 181.86V203.864C300.507 216.075 293.635 222.663 285.322 222.663C278.609 222.663 273.015 218.325 273.015 205.471V181.863C273.015 175.275 268.858 171.26 263.583 171.26C258.307 171.26 254.15 175.278 254.15 181.863V205.954C254.15 226.841 262.781 240.98 281.805 240.98C290.279 240.974 297.152 238.081 300.828 232.781ZM49.9409 239.823C56.0149 239.823 60.9696 234.842 60.9696 228.737C60.9696 222.631 56.0149 217.651 49.9409 217.651C43.8668 217.651 38.9121 222.631 38.9121 228.737C38.9121 234.842 43.8668 239.823 49.9409 239.823ZM49.9409 329.317C55.2166 329.317 59.373 325.302 59.373 318.713V260.87C59.373 254.282 55.2166 250.266 49.9409 250.266C44.6651 250.266 40.5116 254.284 40.5116 260.87V318.713C40.5116 325.302 44.6651 329.317 49.9409 329.317ZM130.101 262.318C126.104 255.087 120.351 249.784 109.322 249.784C101.009 249.784 94.617 252.677 90.9407 257.98C89.9804 253.319 86.4662 250.266 81.8296 250.266C76.5539 250.266 72.4004 254.284 72.4004 260.87V318.713C72.4004 325.302 76.5568 329.317 81.8296 329.317C87.1054 329.317 91.2618 325.302 91.2618 318.713V286.9C91.2618 274.689 97.4949 268.101 105.168 268.101C111.242 268.101 116.356 272.439 116.356 285.292V318.713C116.356 325.302 120.513 329.317 125.788 329.317C131.064 329.317 135.221 325.302 135.221 318.713V286.9C135.221 274.849 141.454 268.101 149.127 268.101C155.201 268.101 160.315 272.439 160.315 285.292V318.713C160.315 325.302 164.471 329.317 169.747 329.317C175.023 329.317 179.179 325.302 179.179 318.713V284.813C179.179 263.926 171.347 249.784 152.326 249.784C141.451 249.784 134.416 254.284 130.101 262.318ZM262.368 341.048C255.495 341.048 252.137 338.478 249.421 336.87C247.024 335.425 244.626 334.46 242.228 334.46C237.432 334.46 233.915 338.478 233.915 342.976C233.915 345.546 235.035 347.956 237.111 350.044C242.387 355.507 253.257 358.4 263.166 358.4C285.386 358.4 297.213 343.618 297.213 322.249V260.87C297.213 254.282 293.056 250.266 287.78 250.266C283.144 250.266 279.627 253.319 278.669 257.98C274.834 252.677 267.482 249.784 259.328 249.784C239.986 249.784 227.04 266.493 227.04 288.345C227.04 310.037 239.986 326.747 259.328 326.747C267.32 326.747 274.513 324.014 278.51 319.033V320.478C278.51 333.175 274.195 341.048 262.368 341.048ZM262.527 308.593C252.456 308.593 246.381 300.719 246.381 288.348C246.381 275.977 252.456 268.104 262.527 268.104C272.757 268.104 278.831 276.939 278.831 288.348C278.831 299.754 272.757 308.593 262.527 308.593ZM328.711 260.39C328.39 254.125 324.554 250.266 319.279 250.266C314.003 250.266 309.847 254.284 309.847 260.87V318.713C309.847 325.302 314.003 329.317 319.279 329.317C324.554 329.317 328.711 325.302 328.711 318.713V289.31C328.711 274.529 335.424 269.226 343.416 269.226C349.97 269.226 354.445 265.69 354.445 259.265C354.445 253.159 350.129 249.947 344.055 249.947C337.342 249.944 331.427 253.962 328.711 260.39ZM448.378 260.39C448.057 254.125 444.222 250.266 438.946 250.266C433.671 250.266 429.514 254.284 429.514 260.87V318.713C429.514 325.302 433.671 329.317 438.946 329.317C444.222 329.317 448.378 325.302 448.378 318.713V289.31C448.378 274.529 455.092 269.226 463.083 269.226C469.638 269.226 474.112 265.69 474.112 259.265C474.112 253.159 469.797 249.947 463.723 249.947C457.009 249.944 451.097 253.962 448.378 260.39ZM417.354 279.027V289.31V302.647V318.713C417.354 323.566 415.095 327.014 411.801 328.5C410.621 329.032 409.314 329.317 407.922 329.317C404.174 329.317 400.998 327.282 399.471 323.743C395.604 327.441 389.784 329.799 381.708 329.799C365.086 329.799 354.534 320.158 354.534 305.217C354.534 284.65 374.674 280.635 390.979 280.635H398.49V278.707C398.49 270.031 393.055 267.781 386.822 267.781C376.433 267.781 375.634 273.886 368.441 273.886C362.847 273.886 359.651 270.031 359.651 265.211C359.651 261.515 361.569 258.462 364.765 256.052C370.2 251.874 378.992 249.787 387.143 249.787C403.127 249.784 417.354 257.657 417.354 279.027ZM398.49 297.666V296.059H391.936C382.984 296.059 373.396 296.378 373.396 305.057C373.396 310.843 377.87 313.573 383.785 313.573C393.376 313.573 398.49 306.825 398.49 297.666ZM172.917 171.617C177.71 173.466 180.018 178.947 177.999 183.692L156.193 234.967C154.767 238.32 151.493 240.492 147.866 240.492H143.961C140.337 240.492 137.06 238.32 135.634 234.967L113.823 183.692C111.804 178.947 114.112 173.464 118.904 171.614C123.365 169.893 128.386 171.952 130.379 176.313L145.911 210.309L161.44 176.313C163.436 171.955 168.457 169.896 172.917 171.617Z" fill="#00082D"/>
<path d="M212.37 258.555C214.016 258.555 215.635 258.451 217.235 258.268L211.991 320.722C211.554 325.589 207.496 329.32 202.637 329.32C197.118 329.32 192.788 324.557 193.283 319.033L198.559 256.224C202.891 257.727 207.537 258.555 212.37 258.555ZM247.455 219.526C247.455 239.372 231.347 255.564 211.603 255.564C191.86 255.564 175.752 239.375 175.752 219.526C175.752 199.68 191.86 183.488 211.603 183.488C231.347 183.488 247.455 199.677 247.455 219.526ZM233.013 219.526C233.013 207.658 223.407 198.005 211.6 198.005C199.794 198.005 190.191 207.661 190.191 219.526C190.191 231.394 199.797 241.047 211.6 241.047C223.41 241.047 233.013 231.391 233.013 219.526Z" fill="url(#paint0_linear_686_1899)"/>
<defs>
<linearGradient id="paint0_linear_686_1899" x1="186.511" y1="337.997" x2="223.795" y2="163.78" gradientUnits="userSpaceOnUse">
<stop stop-color="#1F1C5C"/>
<stop offset="0.3059" stop-color="#6D4FD3"/>
<stop offset="0.867" stop-color="#00A4DE"/>
</linearGradient>
</defs>
</svg>
